<mxfile host="app.diagrams.net" modified="2023-12-10T19:14:15.436Z" agent="Mozilla/5.0 (Windows NT 10.0; Win64; x64) AppleWebKit/537.36 (KHTML, like Gecko) Chrome/119.0.0.0 Safari/537.36" etag="w6A9jSCLWFBAyX648OSv" version="22.1.7" type="device">
  <diagram name="Page-1" id="wRIYf1rNyzP-fE6h4yze">
    <mxGraphModel dx="1195" dy="615" grid="1" gridSize="10" guides="1" tooltips="1" connect="1" arrows="1" fold="1" page="1" pageScale="1" pageWidth="850" pageHeight="1100" math="0" shadow="0">
      <root>
        <mxCell id="0" />
        <mxCell id="1" parent="0" />
        <mxCell id="bmSNhxpHXaYjl_uTQZqh-36" value="CONTAINER SHIP SIZE CATEGORIES" style="swimlane;fontStyle=0;childLayout=stackLayout;horizontal=1;startSize=26;horizontalStack=0;resizeParent=1;resizeParentMax=0;resizeLast=0;collapsible=1;marginBottom=0;align=center;fontSize=14;" parent="1" vertex="1">
          <mxGeometry x="1340" y="900" width="300" height="240" as="geometry" />
        </mxCell>
        <mxCell id="bmSNhxpHXaYjl_uTQZqh-37" value="- Ultra Large Container Vessel (ULCV)" style="text;strokeColor=none;fillColor=none;spacingLeft=4;spacingRight=4;overflow=hidden;rotatable=0;points=[[0,0.5],[1,0.5]];portConstraint=eastwest;fontSize=12;whiteSpace=wrap;html=1;" parent="bmSNhxpHXaYjl_uTQZqh-36" vertex="1">
          <mxGeometry y="26" width="300" height="30" as="geometry" />
        </mxCell>
        <mxCell id="bmSNhxpHXaYjl_uTQZqh-38" value="- New Panamax" style="text;strokeColor=none;fillColor=none;spacingLeft=4;spacingRight=4;overflow=hidden;rotatable=0;points=[[0,0.5],[1,0.5]];portConstraint=eastwest;fontSize=12;whiteSpace=wrap;html=1;" parent="bmSNhxpHXaYjl_uTQZqh-36" vertex="1">
          <mxGeometry y="56" width="300" height="34" as="geometry" />
        </mxCell>
        <mxCell id="bmSNhxpHXaYjl_uTQZqh-39" value="- Post-Panamax" style="text;strokeColor=none;fillColor=none;spacingLeft=4;spacingRight=4;overflow=hidden;rotatable=0;points=[[0,0.5],[1,0.5]];portConstraint=eastwest;fontSize=12;whiteSpace=wrap;html=1;" parent="bmSNhxpHXaYjl_uTQZqh-36" vertex="1">
          <mxGeometry y="90" width="300" height="30" as="geometry" />
        </mxCell>
        <mxCell id="bmSNhxpHXaYjl_uTQZqh-40" value="- Panamax" style="text;strokeColor=none;fillColor=none;spacingLeft=4;spacingRight=4;overflow=hidden;rotatable=0;points=[[0,0.5],[1,0.5]];portConstraint=eastwest;fontSize=12;whiteSpace=wrap;html=1;" parent="bmSNhxpHXaYjl_uTQZqh-36" vertex="1">
          <mxGeometry y="120" width="300" height="30" as="geometry" />
        </mxCell>
        <mxCell id="bmSNhxpHXaYjl_uTQZqh-41" value="- Feedermax" style="text;strokeColor=none;fillColor=none;spacingLeft=4;spacingRight=4;overflow=hidden;rotatable=0;points=[[0,0.5],[1,0.5]];portConstraint=eastwest;fontSize=12;whiteSpace=wrap;html=1;" parent="bmSNhxpHXaYjl_uTQZqh-36" vertex="1">
          <mxGeometry y="150" width="300" height="30" as="geometry" />
        </mxCell>
        <mxCell id="bmSNhxpHXaYjl_uTQZqh-42" value="- Feeder" style="text;strokeColor=none;fillColor=none;spacingLeft=4;spacingRight=4;overflow=hidden;rotatable=0;points=[[0,0.5],[1,0.5]];portConstraint=eastwest;fontSize=12;whiteSpace=wrap;html=1;" parent="bmSNhxpHXaYjl_uTQZqh-36" vertex="1">
          <mxGeometry y="180" width="300" height="30" as="geometry" />
        </mxCell>
        <mxCell id="bmSNhxpHXaYjl_uTQZqh-43" value="- Small feeder" style="text;strokeColor=none;fillColor=none;spacingLeft=4;spacingRight=4;overflow=hidden;rotatable=0;points=[[0,0.5],[1,0.5]];portConstraint=eastwest;fontSize=12;whiteSpace=wrap;html=1;" parent="bmSNhxpHXaYjl_uTQZqh-36" vertex="1">
          <mxGeometry y="210" width="300" height="30" as="geometry" />
        </mxCell>
        <mxCell id="bmSNhxpHXaYjl_uTQZqh-44" value="CONTAINER SHIP CONTAINER CATEGORIES" style="swimlane;fontStyle=0;childLayout=stackLayout;horizontal=1;startSize=26;horizontalStack=0;resizeParent=1;resizeParentMax=0;resizeLast=0;collapsible=1;marginBottom=0;align=center;fontSize=14;" parent="1" vertex="1">
          <mxGeometry x="1370" y="1228" width="330" height="232" as="geometry" />
        </mxCell>
        <mxCell id="bmSNhxpHXaYjl_uTQZqh-45" value="- general-purpose dry van" style="text;strokeColor=none;fillColor=none;spacingLeft=4;spacingRight=4;overflow=hidden;rotatable=0;points=[[0,0.5],[1,0.5]];portConstraint=eastwest;fontSize=12;whiteSpace=wrap;html=1;" parent="bmSNhxpHXaYjl_uTQZqh-44" vertex="1">
          <mxGeometry y="26" width="330" height="30" as="geometry" />
        </mxCell>
        <mxCell id="bmSNhxpHXaYjl_uTQZqh-46" value="- ventilated container" style="text;strokeColor=none;fillColor=none;spacingLeft=4;spacingRight=4;overflow=hidden;rotatable=0;points=[[0,0.5],[1,0.5]];portConstraint=eastwest;fontSize=12;whiteSpace=wrap;html=1;" parent="bmSNhxpHXaYjl_uTQZqh-44" vertex="1">
          <mxGeometry y="56" width="330" height="26" as="geometry" />
        </mxCell>
        <mxCell id="bmSNhxpHXaYjl_uTQZqh-47" value="- temperature controlled container" style="text;strokeColor=none;fillColor=none;spacingLeft=4;spacingRight=4;overflow=hidden;rotatable=0;points=[[0,0.5],[1,0.5]];portConstraint=eastwest;fontSize=12;whiteSpace=wrap;html=1;" parent="bmSNhxpHXaYjl_uTQZqh-44" vertex="1">
          <mxGeometry y="82" width="330" height="30" as="geometry" />
        </mxCell>
        <mxCell id="bmSNhxpHXaYjl_uTQZqh-49" value="- tank container" style="text;strokeColor=none;fillColor=none;spacingLeft=4;spacingRight=4;overflow=hidden;rotatable=0;points=[[0,0.5],[1,0.5]];portConstraint=eastwest;fontSize=12;whiteSpace=wrap;html=1;" parent="bmSNhxpHXaYjl_uTQZqh-44" vertex="1">
          <mxGeometry y="112" width="330" height="30" as="geometry" />
        </mxCell>
        <mxCell id="bmSNhxpHXaYjl_uTQZqh-50" value="- open-top / open-side container" style="text;strokeColor=none;fillColor=none;spacingLeft=4;spacingRight=4;overflow=hidden;rotatable=0;points=[[0,0.5],[1,0.5]];portConstraint=eastwest;fontSize=12;whiteSpace=wrap;html=1;" parent="bmSNhxpHXaYjl_uTQZqh-44" vertex="1">
          <mxGeometry y="142" width="330" height="30" as="geometry" />
        </mxCell>
        <mxCell id="bmSNhxpHXaYjl_uTQZqh-51" value="- log cradle" style="text;strokeColor=none;fillColor=none;spacingLeft=4;spacingRight=4;overflow=hidden;rotatable=0;points=[[0,0.5],[1,0.5]];portConstraint=eastwest;fontSize=12;whiteSpace=wrap;html=1;" parent="bmSNhxpHXaYjl_uTQZqh-44" vertex="1">
          <mxGeometry y="172" width="330" height="30" as="geometry" />
        </mxCell>
        <mxCell id="bmSNhxpHXaYjl_uTQZqh-52" value="- trash container" style="text;strokeColor=none;fillColor=none;spacingLeft=4;spacingRight=4;overflow=hidden;rotatable=0;points=[[0,0.5],[1,0.5]];portConstraint=eastwest;fontSize=12;whiteSpace=wrap;html=1;" parent="bmSNhxpHXaYjl_uTQZqh-44" vertex="1">
          <mxGeometry y="202" width="330" height="30" as="geometry" />
        </mxCell>
        <mxCell id="bmSNhxpHXaYjl_uTQZqh-56" value="CARGO CATEOGIES" style="swimlane;fontStyle=0;childLayout=stackLayout;horizontal=1;startSize=26;horizontalStack=0;resizeParent=1;resizeParentMax=0;resizeLast=0;collapsible=1;marginBottom=0;align=center;fontSize=14;" parent="1" vertex="1">
          <mxGeometry x="470" y="1320" width="200" height="86" as="geometry" />
        </mxCell>
        <mxCell id="bmSNhxpHXaYjl_uTQZqh-57" value="- dry cargo" style="text;strokeColor=none;fillColor=none;spacingLeft=4;spacingRight=4;overflow=hidden;rotatable=0;points=[[0,0.5],[1,0.5]];portConstraint=eastwest;fontSize=12;whiteSpace=wrap;html=1;" parent="bmSNhxpHXaYjl_uTQZqh-56" vertex="1">
          <mxGeometry y="26" width="200" height="30" as="geometry" />
        </mxCell>
        <mxCell id="bmSNhxpHXaYjl_uTQZqh-58" value="- wet cargo" style="text;strokeColor=none;fillColor=none;spacingLeft=4;spacingRight=4;overflow=hidden;rotatable=0;points=[[0,0.5],[1,0.5]];portConstraint=eastwest;fontSize=12;whiteSpace=wrap;html=1;" parent="bmSNhxpHXaYjl_uTQZqh-56" vertex="1">
          <mxGeometry y="56" width="200" height="30" as="geometry" />
        </mxCell>
        <mxCell id="bmSNhxpHXaYjl_uTQZqh-61" value="DRY CARGO CATEGORIES" style="swimlane;fontStyle=0;childLayout=stackLayout;horizontal=1;startSize=26;horizontalStack=0;resizeParent=1;resizeParentMax=0;resizeLast=0;collapsible=1;marginBottom=0;align=center;fontSize=14;" parent="1" vertex="1">
          <mxGeometry x="150" y="1450" width="280" height="266" as="geometry" />
        </mxCell>
        <mxCell id="bmSNhxpHXaYjl_uTQZqh-62" value="- bauxite" style="text;strokeColor=none;fillColor=none;spacingLeft=4;spacingRight=4;overflow=hidden;rotatable=0;points=[[0,0.5],[1,0.5]];portConstraint=eastwest;fontSize=12;whiteSpace=wrap;html=1;" parent="bmSNhxpHXaYjl_uTQZqh-61" vertex="1">
          <mxGeometry y="26" width="280" height="30" as="geometry" />
        </mxCell>
        <mxCell id="bmSNhxpHXaYjl_uTQZqh-63" value="- bulk minerals" style="text;strokeColor=none;fillColor=none;spacingLeft=4;spacingRight=4;overflow=hidden;rotatable=0;points=[[0,0.5],[1,0.5]];portConstraint=eastwest;fontSize=12;whiteSpace=wrap;html=1;" parent="bmSNhxpHXaYjl_uTQZqh-61" vertex="1">
          <mxGeometry y="56" width="280" height="30" as="geometry" />
        </mxCell>
        <mxCell id="bmSNhxpHXaYjl_uTQZqh-64" value="- cements" style="text;strokeColor=none;fillColor=none;spacingLeft=4;spacingRight=4;overflow=hidden;rotatable=0;points=[[0,0.5],[1,0.5]];portConstraint=eastwest;fontSize=12;whiteSpace=wrap;html=1;" parent="bmSNhxpHXaYjl_uTQZqh-61" vertex="1">
          <mxGeometry y="86" width="280" height="30" as="geometry" />
        </mxCell>
        <mxCell id="bmSNhxpHXaYjl_uTQZqh-65" value="- chemicals" style="text;strokeColor=none;fillColor=none;spacingLeft=4;spacingRight=4;overflow=hidden;rotatable=0;points=[[0,0.5],[1,0.5]];portConstraint=eastwest;fontSize=12;whiteSpace=wrap;html=1;" parent="bmSNhxpHXaYjl_uTQZqh-61" vertex="1">
          <mxGeometry y="116" width="280" height="30" as="geometry" />
        </mxCell>
        <mxCell id="bmSNhxpHXaYjl_uTQZqh-66" value="- coals and cokes" style="text;strokeColor=none;fillColor=none;spacingLeft=4;spacingRight=4;overflow=hidden;rotatable=0;points=[[0,0.5],[1,0.5]];portConstraint=eastwest;fontSize=12;whiteSpace=wrap;html=1;" parent="bmSNhxpHXaYjl_uTQZqh-61" vertex="1">
          <mxGeometry y="146" width="280" height="30" as="geometry" />
        </mxCell>
        <mxCell id="bmSNhxpHXaYjl_uTQZqh-67" value="- agricultural products" style="text;strokeColor=none;fillColor=none;spacingLeft=4;spacingRight=4;overflow=hidden;rotatable=0;points=[[0,0.5],[1,0.5]];portConstraint=eastwest;fontSize=12;whiteSpace=wrap;html=1;" parent="bmSNhxpHXaYjl_uTQZqh-61" vertex="1">
          <mxGeometry y="176" width="280" height="30" as="geometry" />
        </mxCell>
        <mxCell id="bmSNhxpHXaYjl_uTQZqh-68" value="- iron" style="text;strokeColor=none;fillColor=none;spacingLeft=4;spacingRight=4;overflow=hidden;rotatable=0;points=[[0,0.5],[1,0.5]];portConstraint=eastwest;fontSize=12;whiteSpace=wrap;html=1;" parent="bmSNhxpHXaYjl_uTQZqh-61" vertex="1">
          <mxGeometry y="206" width="280" height="30" as="geometry" />
        </mxCell>
        <mxCell id="bmSNhxpHXaYjl_uTQZqh-69" value="- wood chips" style="text;strokeColor=none;fillColor=none;spacingLeft=4;spacingRight=4;overflow=hidden;rotatable=0;points=[[0,0.5],[1,0.5]];portConstraint=eastwest;fontSize=12;whiteSpace=wrap;html=1;" parent="bmSNhxpHXaYjl_uTQZqh-61" vertex="1">
          <mxGeometry y="236" width="280" height="30" as="geometry" />
        </mxCell>
        <mxCell id="bmSNhxpHXaYjl_uTQZqh-70" value="WET CARGO CATEGORIES" style="swimlane;fontStyle=0;childLayout=stackLayout;horizontal=1;startSize=26;horizontalStack=0;resizeParent=1;resizeParentMax=0;resizeLast=0;collapsible=1;marginBottom=0;align=center;fontSize=14;" parent="1" vertex="1">
          <mxGeometry x="810" y="1460" width="280" height="296" as="geometry" />
        </mxCell>
        <mxCell id="bmSNhxpHXaYjl_uTQZqh-71" value="- hazardous chemicals in liquid form" style="text;strokeColor=none;fillColor=none;spacingLeft=4;spacingRight=4;overflow=hidden;rotatable=0;points=[[0,0.5],[1,0.5]];portConstraint=eastwest;fontSize=12;whiteSpace=wrap;html=1;" parent="bmSNhxpHXaYjl_uTQZqh-70" vertex="1">
          <mxGeometry y="26" width="280" height="30" as="geometry" />
        </mxCell>
        <mxCell id="bmSNhxpHXaYjl_uTQZqh-72" value="- petroleum" style="text;strokeColor=none;fillColor=none;spacingLeft=4;spacingRight=4;overflow=hidden;rotatable=0;points=[[0,0.5],[1,0.5]];portConstraint=eastwest;fontSize=12;whiteSpace=wrap;html=1;" parent="bmSNhxpHXaYjl_uTQZqh-70" vertex="1">
          <mxGeometry y="56" width="280" height="30" as="geometry" />
        </mxCell>
        <mxCell id="bmSNhxpHXaYjl_uTQZqh-73" value="- gasoline" style="text;strokeColor=none;fillColor=none;spacingLeft=4;spacingRight=4;overflow=hidden;rotatable=0;points=[[0,0.5],[1,0.5]];portConstraint=eastwest;fontSize=12;whiteSpace=wrap;html=1;" parent="bmSNhxpHXaYjl_uTQZqh-70" vertex="1">
          <mxGeometry y="86" width="280" height="30" as="geometry" />
        </mxCell>
        <mxCell id="bmSNhxpHXaYjl_uTQZqh-74" value="- liquifiend natual gas (LNG)" style="text;strokeColor=none;fillColor=none;spacingLeft=4;spacingRight=4;overflow=hidden;rotatable=0;points=[[0,0.5],[1,0.5]];portConstraint=eastwest;fontSize=12;whiteSpace=wrap;html=1;" parent="bmSNhxpHXaYjl_uTQZqh-70" vertex="1">
          <mxGeometry y="116" width="280" height="30" as="geometry" />
        </mxCell>
        <mxCell id="bmSNhxpHXaYjl_uTQZqh-75" value="- liquid nitrogen" style="text;strokeColor=none;fillColor=none;spacingLeft=4;spacingRight=4;overflow=hidden;rotatable=0;points=[[0,0.5],[1,0.5]];portConstraint=eastwest;fontSize=12;whiteSpace=wrap;html=1;" parent="bmSNhxpHXaYjl_uTQZqh-70" vertex="1">
          <mxGeometry y="146" width="280" height="30" as="geometry" />
        </mxCell>
        <mxCell id="bmSNhxpHXaYjl_uTQZqh-76" value="- cooking oil" style="text;strokeColor=none;fillColor=none;spacingLeft=4;spacingRight=4;overflow=hidden;rotatable=0;points=[[0,0.5],[1,0.5]];portConstraint=eastwest;fontSize=12;whiteSpace=wrap;html=1;" parent="bmSNhxpHXaYjl_uTQZqh-70" vertex="1">
          <mxGeometry y="176" width="280" height="30" as="geometry" />
        </mxCell>
        <mxCell id="bmSNhxpHXaYjl_uTQZqh-77" value="- vegetable oil" style="text;strokeColor=none;fillColor=none;spacingLeft=4;spacingRight=4;overflow=hidden;rotatable=0;points=[[0,0.5],[1,0.5]];portConstraint=eastwest;fontSize=12;whiteSpace=wrap;html=1;" parent="bmSNhxpHXaYjl_uTQZqh-70" vertex="1">
          <mxGeometry y="206" width="280" height="30" as="geometry" />
        </mxCell>
        <mxCell id="bmSNhxpHXaYjl_uTQZqh-78" value="- fruit juices" style="text;strokeColor=none;fillColor=none;spacingLeft=4;spacingRight=4;overflow=hidden;rotatable=0;points=[[0,0.5],[1,0.5]];portConstraint=eastwest;fontSize=12;whiteSpace=wrap;html=1;" parent="bmSNhxpHXaYjl_uTQZqh-70" vertex="1">
          <mxGeometry y="236" width="280" height="30" as="geometry" />
        </mxCell>
        <mxCell id="bmSNhxpHXaYjl_uTQZqh-79" value="- rubber" style="text;strokeColor=none;fillColor=none;spacingLeft=4;spacingRight=4;overflow=hidden;rotatable=0;points=[[0,0.5],[1,0.5]];portConstraint=eastwest;fontSize=12;whiteSpace=wrap;html=1;" parent="bmSNhxpHXaYjl_uTQZqh-70" vertex="1">
          <mxGeometry y="266" width="280" height="30" as="geometry" />
        </mxCell>
        <mxCell id="bmSNhxpHXaYjl_uTQZqh-80" style="edgeStyle=orthogonalEdgeStyle;rounded=0;orthogonalLoop=1;jettySize=auto;html=1;entryX=0.5;entryY=0;entryDx=0;entryDy=0;" parent="1" source="bmSNhxpHXaYjl_uTQZqh-57" target="bmSNhxpHXaYjl_uTQZqh-61" edge="1">
          <mxGeometry relative="1" as="geometry" />
        </mxCell>
        <mxCell id="bmSNhxpHXaYjl_uTQZqh-81" style="edgeStyle=orthogonalEdgeStyle;rounded=0;orthogonalLoop=1;jettySize=auto;html=1;entryX=0.564;entryY=0;entryDx=0;entryDy=0;entryPerimeter=0;" parent="1" source="bmSNhxpHXaYjl_uTQZqh-58" target="bmSNhxpHXaYjl_uTQZqh-70" edge="1">
          <mxGeometry relative="1" as="geometry" />
        </mxCell>
        <mxCell id="bmSNhxpHXaYjl_uTQZqh-97" value="USER" style="swimlane;fontStyle=0;childLayout=stackLayout;horizontal=1;startSize=30;horizontalStack=0;resizeParent=1;resizeParentMax=0;resizeLast=0;collapsible=1;marginBottom=0;whiteSpace=wrap;html=1;" parent="1" vertex="1">
          <mxGeometry x="520" y="60" width="170" height="180" as="geometry" />
        </mxCell>
        <mxCell id="bmSNhxpHXaYjl_uTQZqh-98" value="- first name" style="text;strokeColor=none;fillColor=none;align=left;verticalAlign=middle;spacingLeft=4;spacingRight=4;overflow=hidden;points=[[0,0.5],[1,0.5]];portConstraint=eastwest;rotatable=0;whiteSpace=wrap;html=1;" parent="bmSNhxpHXaYjl_uTQZqh-97" vertex="1">
          <mxGeometry y="30" width="170" height="30" as="geometry" />
        </mxCell>
        <mxCell id="bmSNhxpHXaYjl_uTQZqh-99" value="- last name" style="text;strokeColor=none;fillColor=none;align=left;verticalAlign=middle;spacingLeft=4;spacingRight=4;overflow=hidden;points=[[0,0.5],[1,0.5]];portConstraint=eastwest;rotatable=0;whiteSpace=wrap;html=1;" parent="bmSNhxpHXaYjl_uTQZqh-97" vertex="1">
          <mxGeometry y="60" width="170" height="30" as="geometry" />
        </mxCell>
        <mxCell id="bmSNhxpHXaYjl_uTQZqh-100" value="- email" style="text;strokeColor=none;fillColor=none;align=left;verticalAlign=middle;spacingLeft=4;spacingRight=4;overflow=hidden;points=[[0,0.5],[1,0.5]];portConstraint=eastwest;rotatable=0;whiteSpace=wrap;html=1;" parent="bmSNhxpHXaYjl_uTQZqh-97" vertex="1">
          <mxGeometry y="90" width="170" height="30" as="geometry" />
        </mxCell>
        <mxCell id="bmSNhxpHXaYjl_uTQZqh-101" value="- password" style="text;strokeColor=none;fillColor=none;align=left;verticalAlign=middle;spacingLeft=4;spacingRight=4;overflow=hidden;points=[[0,0.5],[1,0.5]];portConstraint=eastwest;rotatable=0;whiteSpace=wrap;html=1;" parent="bmSNhxpHXaYjl_uTQZqh-97" vertex="1">
          <mxGeometry y="120" width="170" height="30" as="geometry" />
        </mxCell>
        <mxCell id="bmSNhxpHXaYjl_uTQZqh-102" value="- companies" style="text;strokeColor=none;fillColor=none;align=left;verticalAlign=middle;spacingLeft=4;spacingRight=4;overflow=hidden;points=[[0,0.5],[1,0.5]];portConstraint=eastwest;rotatable=0;whiteSpace=wrap;html=1;" parent="bmSNhxpHXaYjl_uTQZqh-97" vertex="1">
          <mxGeometry y="150" width="170" height="30" as="geometry" />
        </mxCell>
        <mxCell id="bmSNhxpHXaYjl_uTQZqh-104" value="COMPANY" style="swimlane;fontStyle=0;childLayout=stackLayout;horizontal=1;startSize=30;horizontalStack=0;resizeParent=1;resizeParentMax=0;resizeLast=0;collapsible=1;marginBottom=0;whiteSpace=wrap;html=1;" parent="1" vertex="1">
          <mxGeometry x="510" y="370" width="180" height="90" as="geometry" />
        </mxCell>
        <mxCell id="bmSNhxpHXaYjl_uTQZqh-105" value="- name" style="text;strokeColor=none;fillColor=none;align=left;verticalAlign=middle;spacingLeft=4;spacingRight=4;overflow=hidden;points=[[0,0.5],[1,0.5]];portConstraint=eastwest;rotatable=0;whiteSpace=wrap;html=1;" parent="bmSNhxpHXaYjl_uTQZqh-104" vertex="1">
          <mxGeometry y="30" width="180" height="30" as="geometry" />
        </mxCell>
        <mxCell id="bmSNhxpHXaYjl_uTQZqh-106" value="- ships" style="text;strokeColor=none;fillColor=none;align=left;verticalAlign=middle;spacingLeft=4;spacingRight=4;overflow=hidden;points=[[0,0.5],[1,0.5]];portConstraint=eastwest;rotatable=0;whiteSpace=wrap;html=1;" parent="bmSNhxpHXaYjl_uTQZqh-104" vertex="1">
          <mxGeometry y="60" width="180" height="30" as="geometry" />
        </mxCell>
        <mxCell id="bmSNhxpHXaYjl_uTQZqh-108" style="edgeStyle=orthogonalEdgeStyle;rounded=0;orthogonalLoop=1;jettySize=auto;html=1;entryX=0.5;entryY=0;entryDx=0;entryDy=0;exitX=0.507;exitY=1.01;exitDx=0;exitDy=0;exitPerimeter=0;" parent="1" source="bmSNhxpHXaYjl_uTQZqh-106" target="bmSNhxpHXaYjl_uTQZqh-110" edge="1">
          <mxGeometry relative="1" as="geometry">
            <mxPoint x="620" y="520" as="targetPoint" />
          </mxGeometry>
        </mxCell>
        <mxCell id="bmSNhxpHXaYjl_uTQZqh-109" style="edgeStyle=orthogonalEdgeStyle;rounded=0;orthogonalLoop=1;jettySize=auto;html=1;entryX=0.5;entryY=0;entryDx=0;entryDy=0;exitX=0.477;exitY=1.01;exitDx=0;exitDy=0;exitPerimeter=0;" parent="1" source="bmSNhxpHXaYjl_uTQZqh-102" target="bmSNhxpHXaYjl_uTQZqh-104" edge="1">
          <mxGeometry relative="1" as="geometry" />
        </mxCell>
        <mxCell id="bmSNhxpHXaYjl_uTQZqh-110" value="SHIP" style="swimlane;fontStyle=0;childLayout=stackLayout;horizontal=1;startSize=30;horizontalStack=0;resizeParent=1;resizeParentMax=0;resizeLast=0;collapsible=1;marginBottom=0;whiteSpace=wrap;html=1;" parent="1" vertex="1">
          <mxGeometry x="525" y="590" width="150" height="180" as="geometry" />
        </mxCell>
        <mxCell id="-__80_f-OBse3TGA7C0Y-7" value="- ship data aggregate" style="text;strokeColor=none;fillColor=none;align=left;verticalAlign=middle;spacingLeft=4;spacingRight=4;overflow=hidden;points=[[0,0.5],[1,0.5]];portConstraint=eastwest;rotatable=0;whiteSpace=wrap;html=1;" vertex="1" parent="bmSNhxpHXaYjl_uTQZqh-110">
          <mxGeometry y="30" width="150" height="30" as="geometry" />
        </mxCell>
        <mxCell id="-__80_f-OBse3TGA7C0Y-8" value="- flag" style="text;strokeColor=none;fillColor=none;align=left;verticalAlign=middle;spacingLeft=4;spacingRight=4;overflow=hidden;points=[[0,0.5],[1,0.5]];portConstraint=eastwest;rotatable=0;whiteSpace=wrap;html=1;" vertex="1" parent="bmSNhxpHXaYjl_uTQZqh-110">
          <mxGeometry y="60" width="150" height="30" as="geometry" />
        </mxCell>
        <mxCell id="-__80_f-OBse3TGA7C0Y-12" value="- ship name&lt;br&gt;" style="text;strokeColor=none;fillColor=none;align=left;verticalAlign=middle;spacingLeft=4;spacingRight=4;overflow=hidden;points=[[0,0.5],[1,0.5]];portConstraint=eastwest;rotatable=0;whiteSpace=wrap;html=1;" vertex="1" parent="bmSNhxpHXaYjl_uTQZqh-110">
          <mxGeometry y="90" width="150" height="30" as="geometry" />
        </mxCell>
        <mxCell id="-__80_f-OBse3TGA7C0Y-13" value="- ship type" style="text;strokeColor=none;fillColor=none;align=left;verticalAlign=middle;spacingLeft=4;spacingRight=4;overflow=hidden;points=[[0,0.5],[1,0.5]];portConstraint=eastwest;rotatable=0;whiteSpace=wrap;html=1;" vertex="1" parent="bmSNhxpHXaYjl_uTQZqh-110">
          <mxGeometry y="120" width="150" height="30" as="geometry" />
        </mxCell>
        <mxCell id="-__80_f-OBse3TGA7C0Y-24" value="- owner company" style="text;strokeColor=none;fillColor=none;align=left;verticalAlign=middle;spacingLeft=4;spacingRight=4;overflow=hidden;points=[[0,0.5],[1,0.5]];portConstraint=eastwest;rotatable=0;whiteSpace=wrap;html=1;" vertex="1" parent="bmSNhxpHXaYjl_uTQZqh-110">
          <mxGeometry y="150" width="150" height="30" as="geometry" />
        </mxCell>
        <mxCell id="bmSNhxpHXaYjl_uTQZqh-116" value="CONTAINER" style="swimlane;fontStyle=0;childLayout=stackLayout;horizontal=1;startSize=30;horizontalStack=0;resizeParent=1;resizeParentMax=0;resizeLast=0;collapsible=1;marginBottom=0;whiteSpace=wrap;html=1;" parent="1" vertex="1">
          <mxGeometry x="1000" y="1140" width="140" height="90" as="geometry" />
        </mxCell>
        <mxCell id="bmSNhxpHXaYjl_uTQZqh-117" value="- container category" style="text;strokeColor=none;fillColor=none;align=left;verticalAlign=middle;spacingLeft=4;spacingRight=4;overflow=hidden;points=[[0,0.5],[1,0.5]];portConstraint=eastwest;rotatable=0;whiteSpace=wrap;html=1;" parent="bmSNhxpHXaYjl_uTQZqh-116" vertex="1">
          <mxGeometry y="30" width="140" height="30" as="geometry" />
        </mxCell>
        <mxCell id="bmSNhxpHXaYjl_uTQZqh-122" value="- cargo category" style="text;strokeColor=none;fillColor=none;align=left;verticalAlign=middle;spacingLeft=4;spacingRight=4;overflow=hidden;points=[[0,0.5],[1,0.5]];portConstraint=eastwest;rotatable=0;whiteSpace=wrap;html=1;" parent="bmSNhxpHXaYjl_uTQZqh-116" vertex="1">
          <mxGeometry y="60" width="140" height="30" as="geometry" />
        </mxCell>
        <mxCell id="bmSNhxpHXaYjl_uTQZqh-126" style="edgeStyle=orthogonalEdgeStyle;rounded=0;orthogonalLoop=1;jettySize=auto;html=1;entryX=0.5;entryY=0;entryDx=0;entryDy=0;" parent="1" source="bmSNhxpHXaYjl_uTQZqh-122" target="bmSNhxpHXaYjl_uTQZqh-56" edge="1">
          <mxGeometry relative="1" as="geometry" />
        </mxCell>
        <mxCell id="bmSNhxpHXaYjl_uTQZqh-128" style="edgeStyle=orthogonalEdgeStyle;rounded=0;orthogonalLoop=1;jettySize=auto;html=1;entryX=0.5;entryY=0;entryDx=0;entryDy=0;" parent="1" source="bmSNhxpHXaYjl_uTQZqh-117" target="bmSNhxpHXaYjl_uTQZqh-44" edge="1">
          <mxGeometry relative="1" as="geometry" />
        </mxCell>
        <mxCell id="-__80_f-OBse3TGA7C0Y-1" value="SHIP TYPES" style="swimlane;fontStyle=0;childLayout=stackLayout;horizontal=1;startSize=26;horizontalStack=0;resizeParent=1;resizeParentMax=0;resizeLast=0;collapsible=1;marginBottom=0;align=center;fontSize=14;" vertex="1" parent="1">
          <mxGeometry x="220" y="830" width="280" height="176" as="geometry" />
        </mxCell>
        <mxCell id="-__80_f-OBse3TGA7C0Y-2" value="- container ship" style="text;strokeColor=none;fillColor=none;spacingLeft=4;spacingRight=4;overflow=hidden;rotatable=0;points=[[0,0.5],[1,0.5]];portConstraint=eastwest;fontSize=12;whiteSpace=wrap;html=1;" vertex="1" parent="-__80_f-OBse3TGA7C0Y-1">
          <mxGeometry y="26" width="280" height="30" as="geometry" />
        </mxCell>
        <mxCell id="-__80_f-OBse3TGA7C0Y-3" value="- tanker" style="text;strokeColor=none;fillColor=none;spacingLeft=4;spacingRight=4;overflow=hidden;rotatable=0;points=[[0,0.5],[1,0.5]];portConstraint=eastwest;fontSize=12;whiteSpace=wrap;html=1;" vertex="1" parent="-__80_f-OBse3TGA7C0Y-1">
          <mxGeometry y="56" width="280" height="30" as="geometry" />
        </mxCell>
        <mxCell id="-__80_f-OBse3TGA7C0Y-4" value="- roll-on/roll-off vessel" style="text;strokeColor=none;fillColor=none;spacingLeft=4;spacingRight=4;overflow=hidden;rotatable=0;points=[[0,0.5],[1,0.5]];portConstraint=eastwest;fontSize=12;whiteSpace=wrap;html=1;" vertex="1" parent="-__80_f-OBse3TGA7C0Y-1">
          <mxGeometry y="86" width="280" height="30" as="geometry" />
        </mxCell>
        <mxCell id="-__80_f-OBse3TGA7C0Y-5" value="- dry bulk carrier" style="text;strokeColor=none;fillColor=none;spacingLeft=4;spacingRight=4;overflow=hidden;rotatable=0;points=[[0,0.5],[1,0.5]];portConstraint=eastwest;fontSize=12;whiteSpace=wrap;html=1;" vertex="1" parent="-__80_f-OBse3TGA7C0Y-1">
          <mxGeometry y="116" width="280" height="30" as="geometry" />
        </mxCell>
        <mxCell id="-__80_f-OBse3TGA7C0Y-6" value="- multi-purpose vessel" style="text;strokeColor=none;fillColor=none;spacingLeft=4;spacingRight=4;overflow=hidden;rotatable=0;points=[[0,0.5],[1,0.5]];portConstraint=eastwest;fontSize=12;whiteSpace=wrap;html=1;" vertex="1" parent="-__80_f-OBse3TGA7C0Y-1">
          <mxGeometry y="146" width="280" height="30" as="geometry" />
        </mxCell>
        <mxCell id="-__80_f-OBse3TGA7C0Y-14" style="edgeStyle=orthogonalEdgeStyle;rounded=0;orthogonalLoop=1;jettySize=auto;html=1;entryX=0.5;entryY=0;entryDx=0;entryDy=0;" edge="1" parent="1" source="-__80_f-OBse3TGA7C0Y-13" target="-__80_f-OBse3TGA7C0Y-1">
          <mxGeometry relative="1" as="geometry" />
        </mxCell>
        <mxCell id="-__80_f-OBse3TGA7C0Y-17" value="CONTAINER SHIP AGGREGATE" style="swimlane;fontStyle=0;childLayout=stackLayout;horizontal=1;startSize=26;horizontalStack=0;resizeParent=1;resizeParentMax=0;resizeLast=0;collapsible=1;marginBottom=0;align=center;fontSize=14;" vertex="1" parent="1">
          <mxGeometry x="1240" y="700" width="230" height="86" as="geometry" />
        </mxCell>
        <mxCell id="-__80_f-OBse3TGA7C0Y-18" value="- size type" style="text;strokeColor=none;fillColor=none;spacingLeft=4;spacingRight=4;overflow=hidden;rotatable=0;points=[[0,0.5],[1,0.5]];portConstraint=eastwest;fontSize=12;whiteSpace=wrap;html=1;" vertex="1" parent="-__80_f-OBse3TGA7C0Y-17">
          <mxGeometry y="26" width="230" height="30" as="geometry" />
        </mxCell>
        <mxCell id="-__80_f-OBse3TGA7C0Y-19" value="- containers" style="text;strokeColor=none;fillColor=none;spacingLeft=4;spacingRight=4;overflow=hidden;rotatable=0;points=[[0,0.5],[1,0.5]];portConstraint=eastwest;fontSize=12;whiteSpace=wrap;html=1;" vertex="1" parent="-__80_f-OBse3TGA7C0Y-17">
          <mxGeometry y="56" width="230" height="30" as="geometry" />
        </mxCell>
        <mxCell id="-__80_f-OBse3TGA7C0Y-22" style="edgeStyle=orthogonalEdgeStyle;rounded=0;orthogonalLoop=1;jettySize=auto;html=1;entryX=0.5;entryY=0;entryDx=0;entryDy=0;" edge="1" parent="1" source="-__80_f-OBse3TGA7C0Y-19" target="bmSNhxpHXaYjl_uTQZqh-116">
          <mxGeometry relative="1" as="geometry" />
        </mxCell>
        <mxCell id="-__80_f-OBse3TGA7C0Y-23" style="edgeStyle=orthogonalEdgeStyle;rounded=0;orthogonalLoop=1;jettySize=auto;html=1;entryX=0.5;entryY=0;entryDx=0;entryDy=0;" edge="1" parent="1" source="-__80_f-OBse3TGA7C0Y-18" target="bmSNhxpHXaYjl_uTQZqh-36">
          <mxGeometry relative="1" as="geometry" />
        </mxCell>
        <mxCell id="-__80_f-OBse3TGA7C0Y-27" style="edgeStyle=orthogonalEdgeStyle;rounded=0;orthogonalLoop=1;jettySize=auto;html=1;entryX=0.5;entryY=0;entryDx=0;entryDy=0;exitX=1;exitY=0.5;exitDx=0;exitDy=0;" edge="1" parent="1" source="-__80_f-OBse3TGA7C0Y-28" target="-__80_f-OBse3TGA7C0Y-17">
          <mxGeometry relative="1" as="geometry">
            <mxPoint x="1030" y="635" as="sourcePoint" />
          </mxGeometry>
        </mxCell>
        <mxCell id="-__80_f-OBse3TGA7C0Y-25" style="edgeStyle=orthogonalEdgeStyle;rounded=0;orthogonalLoop=1;jettySize=auto;html=1;entryX=0;entryY=0.5;entryDx=0;entryDy=0;" edge="1" parent="1" source="-__80_f-OBse3TGA7C0Y-7" target="-__80_f-OBse3TGA7C0Y-28">
          <mxGeometry relative="1" as="geometry">
            <mxPoint x="930" y="635" as="targetPoint" />
          </mxGeometry>
        </mxCell>
        <mxCell id="-__80_f-OBse3TGA7C0Y-28" value="AGGREGATE" style="whiteSpace=wrap;html=1;aspect=fixed;" vertex="1" parent="1">
          <mxGeometry x="940" y="590" width="90" height="90" as="geometry" />
        </mxCell>
      </root>
    </mxGraphModel>
  </diagram>
</mxfile>
